# xmcd
# Track frame offsets:
# 150
# 14510
# 28150
# 40738
# 53903
# 65678
# 79640
# 93688
# 108400
# 115988
# 126740
# 140738
# 154878
# 175115
# 187815
# 198900
# 212265
# 223425
# 236703
# 248313
# 258353
# 270438
#
# Disc length: 3784 seconds
# Revision: 0
# Processed by: cddbd v1.4PL0 Copyright (c) Steve Scherf et al.
# Submitted via: VisiTrax 2.9.5.181 - For more info visit www.synapsa.com
#
DISCID=410ec616
DTITLE=Lowell Fusion - Reconsider Baby
DYEAR=1900
DGENRE=
TTITLE0=Reconsider Baby
TTITLE1=Loving You
TTITLE2=It's a long time
TTITLE3=Do Me Right
TTITLE4=Took a Long Time
TTITLE5=Tollin' Bells
TTITLE6=Someday Baby
TTITLE7=I Want To Make love To You
TTITLE8=Rock This Morning
TTITLE9=Coming Home Someday
TTITLE10=Have You Change Your Mind?
TTITLE11=Worry Worry
TTITLE12=I Want Know You
TTITLE13=I'M Glad You Reconsidered
TTITLE14=Blue Shadows
TTITLE15=Hung Down Head
TTITLE16=So Many Tears
TTITLE17=Pay Day Blues
TTITLE18=Why Don't Write Me?
TTITLE19=Shed No Tears
TTITLE20=Trouble With The Blues
TTITLE21=Blue Soul
EXTD=
EXTT0=
EXTT1=
EXTT2=
EXTT3=
EXTT4=
EXTT5=
EXTT6=
EXTT7=
EXTT8=
EXTT9=
EXTT10=
EXTT11=
EXTT12=
EXTT13=
EXTT14=
EXTT15=
EXTT16=
EXTT17=
EXTT18=
EXTT19=
EXTT20=
EXTT21=
PLAYORDER=
